<?xml version="1.0" encoding="UTF-8" standalone="no"?>
<svg
   inkscape:version="1.1.2 (0a00cf5339, 2022-02-04)"
   sodipodi:docname="arrows.svg"
   id="svg24"
   viewBox="0 0 12.698182 12.698182"
   version="1.1"
   height="48"
   width="48"
   xmlns:inkscape="http://www.inkscape.org/namespaces/inkscape"
   xmlns:sodipodi="http://sodipodi.sourceforge.net/DTD/sodipodi-0.dtd"
   xmlns:xlink="http://www.w3.org/1999/xlink"
   xmlns="http://www.w3.org/2000/svg"
   xmlns:svg="http://www.w3.org/2000/svg"
   xmlns:rdf="http://www.w3.org/1999/02/22-rdf-syntax-ns#"
   xmlns:cc="http://creativecommons.org/ns#"
   xmlns:dc="http://purl.org/dc/elements/1.1/">
  <metadata
     id="metadata30">
    <rdf:RDF>
      <cc:Work
         rdf:about="">
        <dc:format>image/svg+xml</dc:format>
        <dc:type
           rdf:resource="http://purl.org/dc/dcmitype/StillImage" />
      </cc:Work>
    </rdf:RDF>
  </metadata>
  <defs
     id="defs28">
    <style
       id="current-color-scheme"
       type="text/css">
      .ColorScheme-Text {
        color:#31363b;
      }
      .ColorScheme-Background{
        color:#eff0f1;
      }
      .ColorScheme-ViewText {
        color:#31363b;
      }
      .ColorScheme-ViewBackground{
        color:#fcfcfc;
      }
      .ColorScheme-ViewHover {
        color:#3daee9;
      }
      .ColorScheme-ViewFocus{
        color:#3daee9;
      }
      .ColorScheme-ButtonText {
        color:#31363b;
      }
      .ColorScheme-ButtonBackground{
        color:#eff0f1;
      }
      .ColorScheme-ButtonHover {
        color:#3daee9;
      }
      .ColorScheme-ButtonFocus{
        color:#3daee9;
      }
</style>
  </defs>
  <sodipodi:namedview
     inkscape:document-rotation="0"
     inkscape:current-layer="svg24"
     inkscape:window-maximized="1"
     inkscape:window-y="0"
     inkscape:window-x="0"
     inkscape:cy="20.182203"
     inkscape:cx="2.6567796"
     inkscape:zoom="10.727273"
     showgrid="true"
     id="namedview26"
     inkscape:window-height="1001"
     inkscape:window-width="1920"
     inkscape:pageshadow="2"
     inkscape:pageopacity="0"
     guidetolerance="10"
     gridtolerance="10"
     objecttolerance="10"
     borderopacity="1"
     bordercolor="#666666"
     pagecolor="#c8c8c8"
     inkscape:pagecheckerboard="0">
    <inkscape:grid
       id="grid824"
       type="xygrid" />
  </sodipodi:namedview>
  <g
     inkscape:label="#right-arrow"
     transform="matrix(0.26454545,0,0,0.26454545,6.878182,3.439091)"
     id="right-arrow">
    <rect
       y="0"
       x="0"
       height="22"
       width="22"
       id="rect3772"
       style="opacity:0;fill:#7d7d7d;fill-opacity:1;stroke:none" />
    <path
       sodipodi:nodetypes="ccccccc"
       id="path3774"
       d="M 8,17 7,16 12,11 7,6 8,5 l 6,6 z"
       style="color:#31363b;fill:#ffffff;fill-opacity:1"
       inkscape:connector-curvature="0"
       class="ColorScheme-Text" />
  </g>
  <g
     transform="matrix(0.26454545,0,0,0.26454545,9e-8,3.439091)"
     id="left-arrow">
    <rect
       y="0"
       x="0"
       height="22"
       width="22"
       id="rect3788"
       style="opacity:0;fill:#7d7d7d;fill-opacity:1;stroke:none" />
    <path
       sodipodi:nodetypes="ccccccc"
       id="path3790"
       d="M 14,17 15,16 10,11 15,6 14,5 8,11 Z"
       style="color:#31363b;fill:#ffffff;fill-opacity:1"
       inkscape:connector-curvature="0"
       class="ColorScheme-Text" />
  </g>
  <rect
     transform="rotate(-90)"
     y="10.317267"
     x="-17.459997"
     height="3.7036366"
     width="3.7036369"
     id="rect866"
     style="fill:none;fill-opacity:1;stroke:none;stroke-width:0.0374123;stroke-linecap:square;stroke-linejoin:miter;stroke-miterlimit:4;stroke-dasharray:none;stroke-dashoffset:0;stroke-opacity:1" />
  <g
     id="up-arrow"
     transform="matrix(0.26454546,0,0,0.26454546,10.86203,-0.21043321)">
    <g
       id="notification-inactive"
       transform="translate(15.26366,5.989004)">
      <g
         id="network-wireless-0"
         transform="translate(-42.13735,-39.989004)">
        <g
           id="g22981"
           transform="translate(-60,140)">
          <g
             id="g22979"
             transform="translate(-120,-20)">
            <path
               id="path22971"
               style="opacity:0;fill:#fcfcfc;stroke-width:3.02362;stroke-linecap:round;stroke-linejoin:round"
               d="m 178,-86 h 22 v 22 h -22 z" />
            <path
               id="path22973"
               style="opacity:0.8;fill-opacity:0.16;stroke-width:0.457561;stroke-linecap:round"
               d="m 197.25,-78.418485 v 6.884929 c 0,2.670889 -2.15021,4.8211 -4.82109,4.8211 h -6.85782 c -2.67088,0 -4.82109,-2.150211 -4.82109,-4.8211 v -6.884929 c 0,-2.670889 2.15021,-4.821099 4.82109,-4.821099 h 6.85782 c 2.67088,0 4.82109,2.15021 4.82109,4.821099 z" />
            <g
               id="g22977"
               transform="translate(-0.01639938,-0.82975674)">
              <g
                 id="g22975" />
            </g>
          </g>
        </g>
        <g
           id="g22991"
           transform="translate(-0.05281975,-0.399181)" />
      </g>
      <g
         id="g1468"
         transform="translate(-0.13734975,-0.41930041)" />
    </g>
    <g
       id="g1294"
       transform="translate(0.6263175,-1.3437441)">
      <path
         id="rect931-6"
         style="fill:#ffffff;fill-opacity:1;stroke:none;stroke-width:0.619155;stroke-linecap:round"
         d="m -19.000384,7.3682616 c -0.277,0 -0.499839,0.2228458 -0.499839,0.4998388 v 0.9910782 c -0.268749,0.077869 -0.527839,0.18653 -0.771794,0.323552 l -0.701924,-0.7040744 c -0.195869,-0.1958678 -0.51143,-0.1958678 -0.707299,0 l -0.707299,0.7072984 c -0.195868,0.195868 -0.195868,0.511431 0,0.707299 l 0.699775,0.7008494 c -0.135289,0.244948 -0.24223,0.504623 -0.318177,0.773944 h -0.993227 c -0.277001,0 -0.49984,0.222826 -0.49984,0.499839 v 0.999677 c 0,0.277012 0.222839,0.499839 0.49984,0.499839 h 0.991078 c 0.07787,0.268749 0.18653,0.527839 0.323552,0.771794 l -0.703,0.702999 c -0.195868,0.195868 -0.195868,0.511432 0,0.707299 l 0.707299,0.706224 c 0.195868,0.195868 0.51143,0.195868 0.707299,0 l 0.699774,-0.699775 c 0.244912,0.135561 0.504589,0.243055 0.773944,0.319252 v 0.992153 c 0,0.276993 0.222839,0.499839 0.499839,0.499839 h 0.999677 c 0.277002,0 0.500915,-0.222846 0.500915,-0.499839 V 15.87627 c 0.268747,-0.07787 0.526762,-0.18653 0.770717,-0.323552 l 0.704074,0.703 c 0.195869,0.195868 0.510355,0.195868 0.706224,0 l 0.707299,-0.706224 c 0.195868,-0.195867 0.195868,-0.511431 0,-0.707299 l -0.699775,-0.699774 c 0.135616,-0.24516 0.242037,-0.505394 0.318178,-0.775019 h 0.993228 c 0.277,0 0.499838,-0.222827 0.499838,-0.499839 v -0.999677 c 0,-0.277013 -0.222838,-0.499839 -0.499838,-0.499839 H -14.992 c -0.07787,-0.268749 -0.185454,-0.527838 -0.322476,-0.771794 l 0.702999,-0.7029994 c 0.195869,-0.195868 0.195869,-0.511431 0,-0.707299 l -0.707299,-0.7072984 c -0.195868,-0.1958678 -0.510355,-0.1958678 -0.706223,0 l -0.70085,0.7008484 c -0.245194,-0.135344 -0.504352,-0.2422861 -0.773942,-0.3181761 V 7.8681004 c 0,-0.276993 -0.223914,-0.4998388 -0.500915,-0.4998388 z m 0.49984,2.8990654 c 1.160122,-8.1e-5 2.100478,0.940274 2.100397,2.100397 8.1e-5,1.160125 -0.940273,2.100479 -2.100397,2.100398 -1.160124,8.1e-5 -2.100479,-0.940274 -2.100399,-2.100398 -8.1e-5,-1.160123 0.940274,-2.100478 2.100399,-2.100397 z"
         sodipodi:nodetypes="sscccsscccssssccsccsccsssscccccsccssssccssssccsssccccc" />
    </g>
  </g>
  <use
     x="0"
     y="0"
     xlink:href="#up-arrow"
     id="down-arrow"
     transform="translate(0.08135726,6.8178111)"
     width="100%"
     height="100%" />
</svg>
