<?xml version="1.0" encoding="UTF-8" standalone="no"?>
<!-- Created with Inkscape (http://www.inkscape.org/) -->

<svg
   width="126.00001"
   height="68"
   viewBox="0 0 126.00001 68"
   version="1.1"
   id="svg1"
   inkscape:version="1.4.2 (ebf0e940d0, 2025-05-08)"
   sodipodi:docname="tasks.svg"
   xmlns:inkscape="http://www.inkscape.org/namespaces/inkscape"
   xmlns:sodipodi="http://sodipodi.sourceforge.net/DTD/sodipodi-0.dtd"
   xmlns:xlink="http://www.w3.org/1999/xlink"
   xmlns="http://www.w3.org/2000/svg"
   xmlns:svg="http://www.w3.org/2000/svg">
  <sodipodi:namedview
     id="namedview1"
     pagecolor="#d0d0d0"
     bordercolor="#000000"
     borderopacity="0.25"
     inkscape:showpageshadow="false"
     inkscape:pageopacity="0.0"
     inkscape:pagecheckerboard="true"
     inkscape:deskcolor="#d1d1d1"
     inkscape:document-units="px"
     borderlayer="false"
     inkscape:current-layer="layer1"
     showgrid="true">
    <inkscape:grid
       id="grid1"
       units="px"
       originx="1.8871141e-06"
       originy="0"
       spacingx="1"
       spacingy="1"
       empcolor="#0099e5"
       empopacity="0.30196078"
       color="#0099e5"
       opacity="0.14902"
       empspacing="5"
       enabled="true"
       visible="true" />
  </sodipodi:namedview>
  <defs
     id="defs1">
    <style
       id="current-color-scheme"
       type="text/css">
      .ColorScheme-Text {
      }
      .ColorScheme-Background{
      }
      .ColorScheme-Highlight{
        color: #ddee00
      }
      .ColorScheme-ViewText {
      }
      .ColorScheme-ViewBackground{
      }
      .ColorScheme-ViewHover {
      }
      .ColorScheme-ViewFocus{
      }
      .ColorScheme-ButtonText {
      }
      .ColorScheme-ButtonBackground{
      }
      .ColorScheme-ButtonHover {
      }
      .ColorScheme-ButtonFocus{
      }
    </style>
  </defs>
  <g
     inkscape:label="Layer 1"
     inkscape:groupmode="layer"
     id="layer1">
    <rect
       id="normal-hint-top-margin"
       x="54"
       y="52"
       width="1"
       height="5"
       fill="#ff00ff"
       style="fill:#008080;stroke-width:1" />
    <rect
       id="normal-hint-bottom-margin"
       x="54"
       y="60"
       width="1"
       height="5"
       fill="#ff00ff"
       style="fill:#008080;stroke-width:1" />
    <rect
       id="normal-hint-right-margin"
       x="56"
       y="58"
       width="5"
       height="1"
       fill="#ff00ff"
       style="fill:#008080;stroke-width:1" />
    <rect
       id="normal-hint-left-margin"
       x="48"
       y="58"
       width="5"
       height="1"
       fill="#ff00ff"
       style="fill:#008080;stroke-width:1" />
    <rect
       style="opacity:1;fill:none;fill-opacity:1;stroke-width:7;stroke-linecap:round"
       id="normal-center"
       width="18"
       height="18"
       x="7"
       y="7" />
    <g
       id="normal-bottom"
       transform="matrix(1,0,0,-1,0,32)">
      <rect
         style="opacity:1;fill:none;fill-opacity:1;stroke-width:6.99999;stroke-linecap:round"
         id="rect5"
         width="18"
         height="3"
         x="7"
         y="4" />
      <rect
         style="fill:none;fill-opacity:1;stroke-width:6.99999;stroke-linecap:round"
         id="rect6"
         width="18"
         height="1"
         x="7"
         y="3" />
      <rect
         style="fill:none;stroke-width:6.99999;stroke-linecap:round"
         id="rect7"
         width="18"
         height="3"
         x="7"
         y="0" />
      <rect
         style="fill:currentColor;fill-opacity:1;stroke-width:7.00002;stroke-linecap:round"
         id="rect8"
         width="3.999999"
         height="3"
         x="14.000001"
         y="4"
         class="ColorScheme-Highlight"
         rx="1.5"
         ry="1.5" />
    </g>
    <g
       id="normal-right"
       transform="rotate(90,16,16)"
       style="fill:none">
      <rect
         style="opacity:1;fill:none;fill-opacity:1;stroke-width:6.99999;stroke-linecap:round"
         id="rect9"
         width="18"
         height="3"
         x="7"
         y="4" />
      <rect
         style="fill:none;fill-opacity:1;stroke-width:6.99999;stroke-linecap:round"
         id="rect10"
         width="18"
         height="1"
         x="7"
         y="3" />
      <rect
         style="fill:none;stroke-width:6.99999;stroke-linecap:round"
         id="rect11"
         width="18"
         height="3"
         x="7"
         y="0" />
    </g>
    <g
       id="normal-left"
       transform="rotate(-90,16,16)"
       style="fill:none">
      <rect
         style="opacity:1;fill:none;fill-opacity:1;stroke-width:6.99999;stroke-linecap:round"
         id="rect12"
         width="18"
         height="3"
         x="7"
         y="4" />
      <rect
         style="fill:none;fill-opacity:1;stroke-width:6.99999;stroke-linecap:round"
         id="rect13"
         width="18"
         height="1"
         x="7"
         y="3" />
      <rect
         style="fill:none;stroke-width:6.99999;stroke-linecap:round"
         id="rect14"
         width="18"
         height="3"
         x="7"
         y="0" />
    </g>
    <g
       id="normal-topleft"
       transform="matrix(-1,0,0,1,31.999998,0)"
       style="fill:none">
      <rect
         style="fill:none;stroke-width:6.99999;stroke-linecap:round"
         id="rect15"
         width="7"
         height="7"
         x="25"
         y="0" />
      <path
         style="opacity:1;fill:none;fill-opacity:1;stroke-width:7;stroke-linecap:round"
         id="path15"
         sodipodi:type="arc"
         sodipodi:cx="24.999998"
         sodipodi:cy="7"
         sodipodi:rx="4.0000019"
         sodipodi:ry="4"
         sodipodi:start="4.712389"
         sodipodi:end="6.2831853"
         sodipodi:arc-type="slice"
         d="M 24.999998,3 A 4.0000019,4 0 0 1 29,7 h -4.000002 z" />
      <path
         style="opacity:1;fill:none;fill-opacity:1;stroke-width:7;stroke-linecap:round"
         id="path16"
         sodipodi:type="arc"
         sodipodi:cx="24.999998"
         sodipodi:cy="7"
         sodipodi:rx="3.0000019"
         sodipodi:ry="3"
         sodipodi:start="4.712389"
         sodipodi:end="6.2831853"
         sodipodi:arc-type="slice"
         d="M 24.999998,4 A 3.0000019,3 0 0 1 28,7 h -3.000002 z" />
    </g>
    <g
       id="normal-bottomright"
       transform="matrix(1,0,0,-1,0,32)">
      <rect
         style="fill:none;stroke-width:6.99999;stroke-linecap:round"
         id="rect18"
         width="7"
         height="7"
         x="25"
         y="0" />
      <path
         style="opacity:1;fill:none;fill-opacity:1;stroke-width:7;stroke-linecap:round"
         id="path19"
         sodipodi:type="arc"
         sodipodi:cx="24.999998"
         sodipodi:cy="7"
         sodipodi:rx="4.0000019"
         sodipodi:ry="4"
         sodipodi:start="4.712389"
         sodipodi:end="6.2831853"
         sodipodi:arc-type="slice"
         d="M 24.999998,3 A 4.0000019,4 0 0 1 29,7 h -4.000002 z" />
      <path
         style="opacity:1;fill:none;fill-opacity:1;stroke-width:7;stroke-linecap:round"
         id="path20"
         sodipodi:type="arc"
         sodipodi:cx="24.999998"
         sodipodi:cy="7"
         sodipodi:rx="3.0000019"
         sodipodi:ry="3"
         sodipodi:start="4.712389"
         sodipodi:end="6.2831853"
         sodipodi:arc-type="slice"
         d="M 24.999998,4 A 3.0000019,3 0 0 1 28,7 h -3.000002 z" />
    </g>
    <g
       id="normal-bottomleft"
       transform="rotate(180,15.999999,16)">
      <rect
         style="fill:none;stroke-width:6.99999;stroke-linecap:round"
         id="rect16"
         width="7"
         height="7"
         x="25"
         y="0" />
      <path
         style="opacity:1;fill:none;fill-opacity:1;stroke-width:7;stroke-linecap:round"
         id="path17"
         sodipodi:type="arc"
         sodipodi:cx="24.999998"
         sodipodi:cy="7"
         sodipodi:rx="4.0000019"
         sodipodi:ry="4"
         sodipodi:start="4.712389"
         sodipodi:end="6.2831853"
         sodipodi:arc-type="slice"
         d="M 24.999998,3 A 4.0000019,4 0 0 1 29,7 h -4.000002 z" />
      <path
         style="opacity:1;fill:none;fill-opacity:1;stroke-width:7;stroke-linecap:round"
         id="path18"
         sodipodi:type="arc"
         sodipodi:cx="24.999998"
         sodipodi:cy="7"
         sodipodi:rx="3.0000019"
         sodipodi:ry="3"
         sodipodi:start="4.712389"
         sodipodi:end="6.2831853"
         sodipodi:arc-type="slice"
         d="M 24.999998,4 A 3.0000019,3 0 0 1 28,7 h -3.000002 z" />
    </g>
    <g
       id="normal-top"
       style="fill:none">
      <rect
         style="opacity:1;fill:none;fill-opacity:1;stroke-width:6.99999;stroke-linecap:round"
         id="rect3"
         width="18"
         height="3"
         x="7"
         y="4" />
      <rect
         style="fill:none;fill-opacity:1;stroke-width:6.99999;stroke-linecap:round"
         id="rect1"
         width="18"
         height="1"
         x="7"
         y="3" />
      <rect
         style="fill:none;stroke-width:6.99999;stroke-linecap:round"
         id="rect2"
         width="18"
         height="3"
         x="7"
         y="0" />
    </g>
    <g
       id="normal-topright"
       style="fill:none">
      <rect
         style="fill:none;stroke-width:6.99999;stroke-linecap:round"
         id="rect4"
         width="7"
         height="7"
         x="25"
         y="0" />
      <path
         style="opacity:1;fill:none;fill-opacity:1;stroke-width:7;stroke-linecap:round"
         id="path3"
         sodipodi:type="arc"
         sodipodi:cx="24.999998"
         sodipodi:cy="7"
         sodipodi:rx="4.0000019"
         sodipodi:ry="4"
         sodipodi:start="4.712389"
         sodipodi:end="6.2831853"
         sodipodi:arc-type="slice"
         d="M 24.999998,3 A 4.0000019,4 0 0 1 29,7 h -4.000002 z" />
      <path
         style="opacity:1;fill:none;fill-opacity:1;stroke-width:7;stroke-linecap:round"
         id="path4"
         sodipodi:type="arc"
         sodipodi:cx="24.999998"
         sodipodi:cy="7"
         sodipodi:rx="3.0000019"
         sodipodi:ry="3"
         sodipodi:start="4.712389"
         sodipodi:end="6.2831853"
         sodipodi:arc-type="slice"
         d="M 24.999998,4 A 3.0000019,3 0 0 1 28,7 h -3.000002 z" />
    </g>
    <rect
       id="hint-stretch-borders"
       x="54"
       y="58"
       width="1"
       height="1"
       fill="#ff00ff"
       style="fill:#008080;stroke-width:1" />
    <rect
       style="opacity:0.65;fill:#3f3f3f;fill-opacity:1;stroke-width:7;stroke-linecap:round"
       id="focus-center"
       width="18"
       height="18"
       x="51"
       y="7" />
    <g
       id="focus-bottom"
       transform="matrix(1,0,0,-1,44,32)">
      <rect
         style="opacity:0.65;fill:#3f3f3f;fill-opacity:1;stroke-width:6.99999;stroke-linecap:round"
         id="rect21"
         width="18"
         height="3"
         x="7"
         y="4" />
      <rect
         style="opacity:0.7;fill:#545454;fill-opacity:1;stroke-width:6.99999;stroke-linecap:round"
         id="rect22"
         width="18"
         height="1"
         x="7"
         y="3" />
      <rect
         style="fill:none;stroke-width:6.99999;stroke-linecap:round"
         id="rect23"
         width="18"
         height="3"
         x="7"
         y="0" />
      <rect
         style="fill:currentColor;fill-opacity:1;stroke-width:6.99999;stroke-linecap:round"
         id="rect24"
         width="10"
         height="3"
         x="11"
         y="4"
         class="ColorScheme-Highlight"
         rx="1.5"
         ry="1.5" />
    </g>
    <g
       id="focus-right"
       transform="rotate(90,38,38)">
      <rect
         style="opacity:0.65;fill:#3f3f3f;fill-opacity:1;stroke-width:6.99999;stroke-linecap:round"
         id="rect25"
         width="18"
         height="3"
         x="7"
         y="4" />
      <rect
         style="opacity:0.7;fill:#545454;fill-opacity:1;stroke-width:6.99999;stroke-linecap:round"
         id="rect26"
         width="18"
         height="1"
         x="7"
         y="3" />
      <rect
         style="fill:none;stroke-width:6.99999;stroke-linecap:round"
         id="rect27"
         width="18"
         height="3"
         x="7"
         y="0" />
    </g>
    <g
       id="focus-left"
       transform="rotate(-90,38,-6)">
      <rect
         style="opacity:0.65;fill:#3f3f3f;fill-opacity:1;stroke-width:6.99999;stroke-linecap:round"
         id="rect28"
         width="18"
         height="3"
         x="7"
         y="4" />
      <rect
         style="opacity:0.7;fill:#545454;fill-opacity:1;stroke-width:6.99999;stroke-linecap:round"
         id="rect29"
         width="18"
         height="1"
         x="7"
         y="3" />
      <rect
         style="fill:none;stroke-width:6.99999;stroke-linecap:round"
         id="rect30"
         width="18"
         height="3"
         x="7"
         y="0" />
    </g>
    <g
       id="focus-topleft"
       transform="matrix(-1,0,0,1,75.999998,0)">
      <rect
         style="fill:none;stroke-width:6.99999;stroke-linecap:round"
         id="rect31"
         width="7"
         height="7"
         x="25"
         y="0" />
      <path
         id="path31"
         style="opacity:0.7;fill:#545454;fill-opacity:1;stroke-width:7;stroke-linecap:round"
         d="m 24.999998,3 a 4.0000019,4 0 0 1 4,4 h -1 a 3.0000019,3 0 0 0 -3,-3 z" />
      <path
         style="opacity:0.65;fill:#3f3f3f;fill-opacity:1;stroke-width:7;stroke-linecap:round"
         id="path2"
         sodipodi:type="arc"
         sodipodi:cx="24.999996"
         sodipodi:cy="7"
         sodipodi:rx="3.0000019"
         sodipodi:ry="3"
         sodipodi:start="4.712389"
         sodipodi:end="6.2831853"
         sodipodi:arc-type="slice"
         d="m 24.999996,4 a 3.0000019,3 0 0 1 3.000002,3 h -3.000002 z" />
    </g>
    <g
       id="focus-bottomright"
       transform="matrix(1,0,0,-1,44,32)">
      <rect
         style="fill:none;stroke-width:6.99999;stroke-linecap:round"
         id="rect32"
         width="7"
         height="7"
         x="25"
         y="0" />
      <path
         id="path33"
         style="opacity:0.7;fill:#545454;fill-opacity:1;stroke-width:7;stroke-linecap:round"
         d="M 28,7 A 3.0000019,3 0 0 0 25,4 V 3 a 4.0000019,4 0 0 1 4,4 z" />
      <path
         style="opacity:0.65;fill:#3f3f3f;fill-opacity:1;stroke-width:7;stroke-linecap:round"
         id="path6"
         sodipodi:type="arc"
         sodipodi:cx="25"
         sodipodi:cy="7"
         sodipodi:rx="3.0000019"
         sodipodi:ry="3"
         sodipodi:start="4.712389"
         sodipodi:end="6.2831853"
         sodipodi:arc-type="slice"
         d="m 25,4 a 3.0000019,3 0 0 1 3.000002,3 H 25 Z" />
    </g>
    <g
       id="focus-bottomleft"
       transform="rotate(180,37.999999,16)">
      <rect
         style="fill:none;stroke-width:6.99999;stroke-linecap:round"
         id="rect34"
         width="7"
         height="7"
         x="25"
         y="0" />
      <path
         id="path35"
         style="opacity:0.7;fill:#545454;fill-opacity:1;stroke-width:7;stroke-linecap:round"
         d="m 28.999998,7 a 4.0000019,4 0 0 0 -4,-4 v 1 a 3.0000019,3 0 0 1 3,3 z" />
      <path
         style="opacity:0.65;fill:#3f3f3f;fill-opacity:1;stroke-width:7;stroke-linecap:round"
         id="path5"
         sodipodi:type="arc"
         sodipodi:cx="24.999998"
         sodipodi:cy="7"
         sodipodi:rx="3.0000019"
         sodipodi:ry="3"
         sodipodi:start="4.712389"
         sodipodi:end="6.2831853"
         sodipodi:arc-type="slice"
         d="M 24.999998,4 A 3.0000019,3 0 0 1 28,7 h -3.000002 z" />
    </g>
    <g
       id="focus-top"
       transform="translate(44)">
      <rect
         style="opacity:0.65;fill:#3f3f3f;fill-opacity:1;stroke-width:6.99999;stroke-linecap:round"
         id="rect36"
         width="18"
         height="3"
         x="7"
         y="4" />
      <rect
         style="opacity:0.7;fill:#545454;fill-opacity:1;stroke-width:6.99999;stroke-linecap:round"
         id="rect37"
         width="18"
         height="1"
         x="7"
         y="3" />
      <rect
         style="fill:none;stroke-width:6.99999;stroke-linecap:round"
         id="rect38"
         width="18"
         height="3"
         x="7"
         y="0" />
    </g>
    <g
       id="focus-topright"
       transform="translate(44)">
      <rect
         style="fill:none;stroke-width:6.99999;stroke-linecap:round"
         id="rect39"
         width="7"
         height="7"
         x="25"
         y="0" />
      <path
         id="path39"
         style="opacity:0.7;fill:#545454;fill-opacity:1;stroke-width:7;stroke-linecap:round"
         d="m 25,3 v 1 a 3.0000019,3 0 0 1 3,3 h 1 A 4.0000019,4 0 0 0 25,3 Z" />
      <path
         style="opacity:0.65;fill:#3f3f3f;fill-opacity:1;stroke-width:7;stroke-linecap:round"
         id="path1"
         sodipodi:type="arc"
         sodipodi:cx="24.999998"
         sodipodi:cy="7"
         sodipodi:rx="3.0000019"
         sodipodi:ry="3"
         sodipodi:start="4.712389"
         sodipodi:end="6.2831853"
         sodipodi:arc-type="slice"
         d="M 24.999998,4 A 3.0000019,3 0 0 1 28,7 h -3.000002 z" />
    </g>
    <use
       x="0"
       y="0"
       xlink:href="#normal-center"
       id="minimized-center"
       transform="translate(0,36)" />
    <use
       x="0"
       y="0"
       xlink:href="#normal-bottom"
       id="minimized-bottom"
       transform="translate(0,36)" />
    <use
       x="0"
       y="0"
       xlink:href="#normal-right"
       id="minimized-right"
       transform="translate(0,36)" />
    <use
       x="0"
       y="0"
       xlink:href="#normal-left"
       id="minimized-left"
       transform="translate(0,36)" />
    <use
       x="0"
       y="0"
       xlink:href="#normal-topleft"
       id="minimized-topleft"
       transform="translate(0,36)" />
    <use
       x="0"
       y="0"
       xlink:href="#normal-bottomright"
       id="minimized-bottomright"
       transform="translate(0,36)" />
    <use
       x="0"
       y="0"
       xlink:href="#normal-bottomleft"
       id="minimized-bottomleft"
       transform="translate(0,36)" />
    <use
       x="0"
       y="0"
       xlink:href="#normal-top"
       id="minimized-top"
       transform="translate(0,36)" />
    <use
       x="0"
       y="0"
       xlink:href="#normal-topright"
       id="minimized-topright"
       transform="translate(0,36)" />
    <rect
       style="opacity:0.65;fill:#00aca4;fill-opacity:1;stroke-width:7;stroke-linecap:round"
       id="progress-center"
       width="18"
       height="18"
       x="101"
       y="7" />
    <g
       id="progress-bottom"
       transform="matrix(1,0,0,-1,94.000002,32)">
      <rect
         style="opacity:0.65;fill:#00aca4;fill-opacity:1;stroke-width:6.99999;stroke-linecap:round"
         id="rect19"
         width="18"
         height="3"
         x="7"
         y="4" />
      <rect
         style="opacity:0.7;fill:#545454;fill-opacity:1;stroke-width:6.99999;stroke-linecap:round"
         id="rect20"
         width="18"
         height="1"
         x="7"
         y="3" />
      <rect
         style="fill:none;stroke-width:6.99999;stroke-linecap:round"
         id="rect33"
         width="18"
         height="3"
         x="7"
         y="0" />
    </g>
    <g
       id="progress-right"
       transform="rotate(90,63.000001,63.000001)">
      <rect
         style="opacity:0.65;fill:#00aca4;fill-opacity:1;stroke-width:6.99999;stroke-linecap:round"
         id="rect40"
         width="18"
         height="3"
         x="7"
         y="4" />
      <rect
         style="opacity:0.7;fill:#545454;fill-opacity:1;stroke-width:6.99999;stroke-linecap:round"
         id="rect41"
         width="18"
         height="1"
         x="7"
         y="3" />
      <rect
         style="fill:none;stroke-width:6.99999;stroke-linecap:round"
         id="rect42"
         width="18"
         height="3"
         x="7"
         y="0" />
    </g>
    <g
       id="progress-left"
       transform="rotate(-90,63.000001,-31.000001)">
      <rect
         style="opacity:0.65;fill:#00aca4;fill-opacity:1;stroke-width:6.99999;stroke-linecap:round"
         id="rect43"
         width="18"
         height="3"
         x="7"
         y="4" />
      <rect
         style="opacity:0.7;fill:#545454;fill-opacity:1;stroke-width:6.99999;stroke-linecap:round"
         id="rect44"
         width="18"
         height="1"
         x="7"
         y="3" />
      <rect
         style="fill:none;stroke-width:6.99999;stroke-linecap:round"
         id="rect45"
         width="18"
         height="3"
         x="7"
         y="0" />
    </g>
    <g
       id="progress-topleft"
       transform="matrix(-1,0,0,1,126,0)">
      <rect
         style="fill:none;stroke-width:6.99999;stroke-linecap:round"
         id="rect46"
         width="7"
         height="7"
         x="25"
         y="0" />
      <path
         id="path46"
         style="opacity:0.7;fill:#545454;fill-opacity:1;stroke-width:7;stroke-linecap:round"
         d="m 24.999998,3 a 4.0000019,4 0 0 1 4,4 h -1 a 3.0000019,3 0 0 0 -3,-3 z" />
      <path
         style="opacity:0.65;fill:#00aca4;fill-opacity:1;stroke-width:7;stroke-linecap:round"
         id="path47"
         sodipodi:type="arc"
         sodipodi:cx="24.999996"
         sodipodi:cy="7"
         sodipodi:rx="3.0000019"
         sodipodi:ry="3"
         sodipodi:start="4.712389"
         sodipodi:end="6.2831853"
         sodipodi:arc-type="slice"
         d="m 24.999996,4 a 3.0000019,3 0 0 1 3.000002,3 h -3.000002 z" />
    </g>
    <g
       id="progress-bottomright"
       transform="matrix(1,0,0,-1,94.000002,32)">
      <rect
         style="fill:none;stroke-width:6.99999;stroke-linecap:round"
         id="rect47"
         width="7"
         height="7"
         x="25"
         y="0" />
      <path
         id="path48"
         style="opacity:0.7;fill:#545454;fill-opacity:1;stroke-width:7;stroke-linecap:round"
         d="M 28,7 A 3.0000019,3 0 0 0 25,4 V 3 a 4.0000019,4 0 0 1 4,4 z" />
      <path
         style="opacity:0.65;fill:#00aca4;fill-opacity:1;stroke-width:7;stroke-linecap:round"
         id="path49"
         sodipodi:type="arc"
         sodipodi:cx="25"
         sodipodi:cy="7"
         sodipodi:rx="3.0000019"
         sodipodi:ry="3"
         sodipodi:start="4.712389"
         sodipodi:end="6.2831853"
         sodipodi:arc-type="slice"
         d="m 25,4 a 3.0000019,3 0 0 1 3.000002,3 H 25 Z" />
    </g>
    <g
       id="progress-bottomleft"
       transform="rotate(180,63,16)">
      <rect
         style="fill:none;stroke-width:6.99999;stroke-linecap:round"
         id="rect49"
         width="7"
         height="7"
         x="25"
         y="0" />
      <path
         id="path50"
         style="opacity:0.7;fill:#545454;fill-opacity:1;stroke-width:7;stroke-linecap:round"
         d="m 28.999998,7 a 4.0000019,4 0 0 0 -4,-4 v 1 a 3.0000019,3 0 0 1 3,3 z" />
      <path
         style="opacity:0.65;fill:#00aca4;fill-opacity:1;stroke-width:7;stroke-linecap:round"
         id="path51"
         sodipodi:type="arc"
         sodipodi:cx="24.999998"
         sodipodi:cy="7"
         sodipodi:rx="3.0000019"
         sodipodi:ry="3"
         sodipodi:start="4.712389"
         sodipodi:end="6.2831853"
         sodipodi:arc-type="slice"
         d="M 24.999998,4 A 3.0000019,3 0 0 1 28,7 h -3.000002 z" />
    </g>
    <g
       id="progress-top"
       transform="translate(94.000002)">
      <rect
         style="opacity:0.65;fill:#00aca4;fill-opacity:1;stroke-width:6.99999;stroke-linecap:round"
         id="rect51"
         width="18"
         height="3"
         x="7"
         y="4" />
      <rect
         style="opacity:0.7;fill:#545454;fill-opacity:1;stroke-width:6.99999;stroke-linecap:round"
         id="rect52"
         width="18"
         height="1"
         x="7"
         y="3" />
      <rect
         style="fill:none;stroke-width:6.99999;stroke-linecap:round"
         id="rect53"
         width="18"
         height="3"
         x="7"
         y="0" />
    </g>
    <g
       id="progress-topright"
       transform="translate(94.000002)">
      <rect
         style="fill:none;stroke-width:6.99999;stroke-linecap:round"
         id="rect54"
         width="7"
         height="7"
         x="25"
         y="0" />
      <path
         id="path54"
         style="opacity:0.7;fill:#545454;fill-opacity:1;stroke-width:7;stroke-linecap:round"
         d="m 25,3 v 1 a 3.0000019,3 0 0 1 3,3 h 1 A 4.0000019,4 0 0 0 25,3 Z" />
      <path
         style="opacity:0.65;fill:#00aca4;fill-opacity:1;stroke-width:7;stroke-linecap:round"
         id="path55"
         sodipodi:type="arc"
         sodipodi:cx="24.999998"
         sodipodi:cy="7"
         sodipodi:rx="3.0000019"
         sodipodi:ry="3"
         sodipodi:start="4.712389"
         sodipodi:end="6.2831853"
         sodipodi:arc-type="slice"
         d="M 24.999998,4 A 3.0000019,3 0 0 1 28,7 h -3.000002 z" />
    </g>
    <rect
       style="opacity:0.65;fill:#ff7100;fill-opacity:1;stroke-width:7;stroke-linecap:round"
       id="attention-center"
       width="18"
       height="18"
       x="101"
       y="43" />
    <g
       id="attention-bottom"
       transform="matrix(1,0,0,-1,94.000002,68)">
      <rect
         style="opacity:0.65;fill:#ff7100;fill-opacity:1;stroke-width:6.99999;stroke-linecap:round"
         id="rect56"
         width="18"
         height="3"
         x="7"
         y="4" />
      <rect
         style="opacity:0.7;fill:#643712;fill-opacity:1;stroke-width:6.99999;stroke-linecap:round"
         id="rect57"
         width="18"
         height="1"
         x="7"
         y="3" />
      <rect
         style="fill:none;stroke-width:6.99999;stroke-linecap:round"
         id="rect58"
         width="18"
         height="3"
         x="7"
         y="0" />
    </g>
    <g
       id="attention-right"
       transform="rotate(90,45.000001,81.000001)">
      <rect
         style="opacity:0.65;fill:#ff7100;fill-opacity:1;stroke-width:6.99999;stroke-linecap:round"
         id="rect59"
         width="18"
         height="3"
         x="7"
         y="4" />
      <rect
         style="opacity:0.7;fill:#643712;fill-opacity:1;stroke-width:6.99999;stroke-linecap:round"
         id="rect60"
         width="18"
         height="1"
         x="7"
         y="3" />
      <rect
         style="fill:none;stroke-width:6.99999;stroke-linecap:round"
         id="rect61"
         width="18"
         height="3"
         x="7"
         y="0" />
    </g>
    <g
       id="attention-left"
       transform="rotate(-90,81.000001,-13.000001)">
      <rect
         style="opacity:0.65;fill:#ff7100;fill-opacity:1;stroke-width:6.99999;stroke-linecap:round"
         id="rect62"
         width="18"
         height="3"
         x="7"
         y="4" />
      <rect
         style="opacity:0.7;fill:#643712;fill-opacity:1;stroke-width:6.99999;stroke-linecap:round"
         id="rect63"
         width="18"
         height="1"
         x="7"
         y="3" />
      <rect
         style="fill:none;stroke-width:6.99999;stroke-linecap:round"
         id="rect64"
         width="18"
         height="3"
         x="7"
         y="0" />
    </g>
    <g
       id="attention-topleft"
       transform="matrix(-1,0,0,1,126,36)">
      <rect
         style="fill:none;stroke-width:6.99999;stroke-linecap:round"
         id="rect65"
         width="7"
         height="7"
         x="25"
         y="0" />
      <path
         id="path65"
         style="opacity:0.7;fill:#643712;fill-opacity:1;stroke-width:7;stroke-linecap:round"
         d="m 24.999998,3 a 4.0000019,4 0 0 1 4,4 h -1 a 3.0000019,3 0 0 0 -3,-3 z" />
      <path
         style="opacity:0.65;fill:#ff7100;fill-opacity:1;stroke-width:7;stroke-linecap:round"
         id="path66"
         sodipodi:type="arc"
         sodipodi:cx="24.999996"
         sodipodi:cy="7"
         sodipodi:rx="3.0000019"
         sodipodi:ry="3"
         sodipodi:start="4.712389"
         sodipodi:end="6.2831853"
         sodipodi:arc-type="slice"
         d="m 24.999996,4 a 3.0000019,3 0 0 1 3.000002,3 h -3.000002 z" />
    </g>
    <g
       id="attention-bottomright"
       transform="matrix(1,0,0,-1,94.000002,68)">
      <rect
         style="fill:none;stroke-width:6.99999;stroke-linecap:round"
         id="rect66"
         width="7"
         height="7"
         x="25"
         y="0" />
      <path
         id="path67"
         style="opacity:0.7;fill:#643712;fill-opacity:1;stroke-width:7;stroke-linecap:round"
         d="M 28,7 A 3.0000019,3 0 0 0 25,4 V 3 a 4.0000019,4 0 0 1 4,4 z" />
      <path
         style="opacity:0.65;fill:#ff7100;fill-opacity:1;stroke-width:7;stroke-linecap:round"
         id="path68"
         sodipodi:type="arc"
         sodipodi:cx="25"
         sodipodi:cy="7"
         sodipodi:rx="3.0000019"
         sodipodi:ry="3"
         sodipodi:start="4.712389"
         sodipodi:end="6.2831853"
         sodipodi:arc-type="slice"
         d="m 25,4 a 3.0000019,3 0 0 1 3.000002,3 H 25 Z" />
    </g>
    <g
       id="attention-bottomleft"
       transform="rotate(180,63,34)">
      <rect
         style="fill:none;stroke-width:6.99999;stroke-linecap:round"
         id="rect68"
         width="7"
         height="7"
         x="25"
         y="0" />
      <path
         id="path69"
         style="opacity:0.7;fill:#643712;fill-opacity:1;stroke-width:7;stroke-linecap:round"
         d="m 28.999998,7 a 4.0000019,4 0 0 0 -4,-4 v 1 a 3.0000019,3 0 0 1 3,3 z" />
      <path
         style="opacity:0.65;fill:#ff7100;fill-opacity:1;stroke-width:7;stroke-linecap:round"
         id="path70"
         sodipodi:type="arc"
         sodipodi:cx="24.999998"
         sodipodi:cy="7"
         sodipodi:rx="3.0000019"
         sodipodi:ry="3"
         sodipodi:start="4.712389"
         sodipodi:end="6.2831853"
         sodipodi:arc-type="slice"
         d="M 24.999998,4 A 3.0000019,3 0 0 1 28,7 h -3.000002 z" />
    </g>
    <g
       id="attention-top"
       transform="translate(94.000002,36)">
      <rect
         style="opacity:0.65;fill:#ff7100;fill-opacity:1;stroke-width:6.99999;stroke-linecap:round"
         id="rect70"
         width="18"
         height="3"
         x="7"
         y="4" />
      <rect
         style="opacity:0.7;fill:#643712;fill-opacity:1;stroke-width:6.99999;stroke-linecap:round"
         id="rect71"
         width="18"
         height="1"
         x="7"
         y="3" />
      <rect
         style="fill:none;stroke-width:6.99999;stroke-linecap:round"
         id="rect72"
         width="18"
         height="3"
         x="7"
         y="0" />
    </g>
    <g
       id="attention-topright"
       transform="translate(94.000002,36)">
      <rect
         style="fill:none;stroke-width:6.99999;stroke-linecap:round"
         id="rect73"
         width="7"
         height="7"
         x="25"
         y="0" />
      <path
         id="path73"
         style="opacity:0.7;fill:#643712;fill-opacity:1;stroke-width:7;stroke-linecap:round"
         d="m 25,3 v 1 a 3.0000019,3 0 0 1 3,3 h 1 A 4.0000019,4 0 0 0 25,3 Z" />
      <path
         style="opacity:0.65;fill:#ff7100;fill-opacity:1;stroke-width:7;stroke-linecap:round"
         id="path74"
         sodipodi:type="arc"
         sodipodi:cx="24.999998"
         sodipodi:cy="7"
         sodipodi:rx="3.0000019"
         sodipodi:ry="3"
         sodipodi:start="4.712389"
         sodipodi:end="6.2831853"
         sodipodi:arc-type="slice"
         d="M 24.999998,4 A 3.0000019,3 0 0 1 28,7 h -3.000002 z" />
    </g>
    <g
       id="group-expander-bottom"
       transform="translate(-77,-15)">
      <rect
         style="opacity:0.65;fill:none;fill-opacity:1;stroke-width:7;stroke-linecap:round"
         id="rect75"
         width="18"
         height="18"
         x="147"
         y="55" />
      <circle
         style="opacity:0.9;fill:#e6e6e6;fill-opacity:1;stroke:none;stroke-width:1;stroke-linecap:round;stroke-linejoin:round;stroke-dasharray:none;stroke-opacity:0.403581"
         id="path75"
         cx="156"
         cy="61"
         r="4" />
    </g>
  </g>
</svg>
