<?xml version="1.0" encoding="UTF-8" standalone="no"?>
<svg
   width="173"
   height="56.000004"
   viewBox="0 0 173 56.000004"
   id="svg2"
   version="1.1"
   inkscape:version="1.4.2 (unknown)"
   sodipodi:docname="panel-background.svg"
   xmlns:inkscape="http://www.inkscape.org/namespaces/inkscape"
   xmlns:sodipodi="http://sodipodi.sourceforge.net/DTD/sodipodi-0.dtd"
   xmlns:xlink="http://www.w3.org/1999/xlink"
   xmlns="http://www.w3.org/2000/svg"
   xmlns:svg="http://www.w3.org/2000/svg">
  <sodipodi:namedview
     id="base"
     pagecolor="#182335"
     bordercolor="#5b76a6"
     borderopacity="1"
     inkscape:pageopacity="1"
     inkscape:pageshadow="2"
     inkscape:zoom="2.6410435"
     inkscape:cx="95.60615"
     inkscape:cy="85.572237"
     inkscape:document-units="px"
     inkscape:current-layer="layer1"
     showgrid="true"
     inkscape:showpageshadow="false"
     borderlayer="true"
     units="px"
     inkscape:window-width="1920"
     inkscape:window-height="998"
     inkscape:window-x="0"
     inkscape:window-y="0"
     inkscape:window-maximized="1"
     showguides="true"
     fit-margin-top="0"
     fit-margin-left="0"
     fit-margin-right="0"
     fit-margin-bottom="0"
     inkscape:document-rotation="0"
     inkscape:pagecheckerboard="true"
     inkscape:snap-bbox="true"
     inkscape:bbox-nodes="true"
     inkscape:snap-bbox-edge-midpoints="false"
     inkscape:snap-nodes="true"
     inkscape:guide-bbox="true"
     inkscape:deskcolor="#182335">
    <inkscape:grid
       type="xygrid"
       id="grid938"
       originx="0"
       originy="0"
       spacingy="1"
       spacingx="1"
       units="px"
       visible="true" />
  </sodipodi:namedview>
  <style
     type="text/css"
     id="current-color-scheme">.ColorScheme-Text { color:#333333;        stop-color:#333333; }
.ColorScheme-Background { 
    color:#182030;
    stop-color:#182030;
}
.ColorScheme-Highlight { color:#3476CF;        stop-color:#3476CF; }
.ColorScheme-ViewText { color:#333333;        stop-color:#333333; }
.ColorScheme-ViewBackground { color:#ffffff;        stop-color:#ffffff; }
.ColorScheme-ViewHover { color:#93cee9;        stop-color:#93cee9; }
.ColorScheme-ViewFocus { color:#3476CF;        stop-color:#3476CF; }
.ColorScheme-ButtonText { color:#333333;        stop-color:#333333; }
.ColorScheme-ButtonBackground { color:#f5f5f5;        stop-color:#f5f5f5; }
.ColorScheme-ButtonHover { color:#9abbe7;        stop-color:#9abbe7; }
.ColorScheme-ButtonFocus { color:#3476CF;        stop-color:#3476CF; }
</style>
  <defs
     id="defs4">
    <linearGradient
       inkscape:collect="always"
       xlink:href="#shadow"
       id="linearGradient3054"
       gradientUnits="userSpaceOnUse"
       x1="-916.36224"
       y1="-35.000019"
       x2="-904.36218"
       y2="-35"
       gradientTransform="matrix(0,-1.3333333,-1,0,56.99998,-1209.8162)" />
    <linearGradient
       inkscape:collect="always"
       id="shadow">
      <stop
         style="stop-color:#000000;stop-opacity:0.3"
         offset="0"
         id="stop1102" />
      <stop
         id="stop1101"
         offset="0.74999988"
         style="stop-color:#000000;stop-opacity:0.06" />
      <stop
         style="stop-color:#000000;stop-opacity:0;"
         offset="1"
         id="stop1104" />
    </linearGradient>
    <radialGradient
       inkscape:collect="always"
       xlink:href="#shadow"
       id="radialGradient2692"
       cx="76"
       cy="12.000028"
       fx="76"
       fy="12.000028"
       r="4.499999"
       gradientUnits="userSpaceOnUse"
       gradientTransform="matrix(-2.7342519e-7,-3.5555544,3.5555563,-3.6833676e-7,33.333259,282.22224)" />
  </defs>
  <g
     inkscape:groupmode="layer"
     id="layer1"
     transform="translate(0,-904.36218)">
    <use
       x="0"
       y="0"
       xlink:href="#shadow-top"
       id="shadow-bottom"
       transform="matrix(1,0,0,-1,3.5258789e-5,1864.7244)"
       width="100%"
       height="100%" />
    <use
       x="0"
       y="0"
       xlink:href="#shadow-top"
       id="shadow-left"
       transform="matrix(0,1,1,0,-840.3622,840.36224)"
       width="100%"
       height="100%" />
    <use
       x="0"
       y="0"
       xlink:href="#shadow-top"
       id="shadow-right"
       transform="rotate(90,91.999982,932.36222)"
       width="100%"
       height="100%" />
    <rect
       style="fill:#ffff00;fill-opacity:1;stroke:none"
       id="hint-tile-center"
       width="5"
       height="5"
       x="0"
       y="904.36218" />
    <g
       id="top"
       transform="matrix(1,0,0,1.6000069,0,-549.82367)">
      <rect
         y="-50.999985"
         x="-916.36218"
         height="32"
         width="4.9999785"
         id="rect4152"
         style="stroke-width:0.999995;fill:currentColor;opacity:1.0;"
         transform="matrix(0,-1,-1,0,0,0)"
         class="ColorScheme-Background" />
      <rect
         y="-50.999985"
         x="-911.98718"
         height="32"
         width="0.62499732"
         id="rect981"
         transform="matrix(0,-1,-1,0,0,0)"
         style="fill:#939dac;opacity:1;fill-opacity:0.1"
         class="ColorScheme-Background" />
    </g>
    <g
       id="topleft"
       transform="matrix(1.1999952,0,0,1.1999952,-5.7999612,-185.26807)">
      <path
         id="rect4159"
         style="stroke-width:0.875;fill:currentColor;opacity:1.0;"
         class="ColorScheme-Background"
         d="m 20.666717,911.36219 c -3.744433,0 -6.666693,2.92227 -6.666693,6.66671 h 4.722241 0.972226 0.972226 v -0.97223 -4.86115 z"
         sodipodi:nodetypes="cccccccc" />
      <path
         id="path940"
         d="M 19 4 C 14.567983 4 11 7.5679737 11 12 L 12 12 C 12 8.1219755 15.121985 5 19 5 L 19 4 z "
         transform="matrix(0.83333667,0,0,0.83333667,4.8333203,908.02884)"
         style="fill:#939dac;opacity:1;fill-opacity:0.1"
         class="ColorScheme-Background" />
    </g>
    <g
       id="center">
      <rect
         y="916.36218"
         x="19.000004"
         height="32"
         width="32"
         id="rect4401"
         style="opacity:1;fill:none;fill-opacity:1;stroke:none" />
      <rect
         style="stroke:none;fill-opacity:1;fill:currentColor;opacity:1.0;"
         id="rect4138"
         width="32"
         height="32"
         x="19.000004"
         y="916.36218"
         class="ColorScheme-Background" />
    </g>
    <g
       id="shadow-top"
       transform="matrix(1,0,0,1.3333333,56.99998,-305.45401)"
       style="display:inline">
      <rect
         transform="matrix(0,-1,-1,0,0,0)"
         style="opacity:1;fill:none;fill-opacity:1;stroke:none"
         id="rect4820"
         width="6"
         height="32"
         x="-916.36218"
         y="-50.999985" />
      <path
         id="rect4822"
         style="opacity:0.5;fill:url(#linearGradient3054);fill-opacity:1;stroke:none;stroke-width:1.1547"
         d="M 76 -4 L 76 3 L 108 3 L 108 -4 L 76 -4 z "
         transform="matrix(1,0,0,0.75000002,-56.99998,907.36217)" />
      <rect
         y="-50.999985"
         x="-911.36218"
         height="32"
         width="0.99997741"
         id="rect4824"
         style="opacity:1;fill:none;fill-opacity:1;stroke:none"
         transform="matrix(0,-1,-1,0,0,0)" />
      <rect
         transform="rotate(90)"
         id="rect2135"
         width="0.75"
         height="32"
         x="909.61218"
         y="-50.999985"
         style="opacity:0.08;fill:#000000" />
    </g>
    <g
       id="shadow-topleft"
       transform="matrix(1.3333333,0,0,1.3333292,50.666652,-305.45027)">
      <path
         id="path4828"
         style="opacity:0.5;fill:url(#radialGradient2692);fill-opacity:1;fill-rule:evenodd;stroke:none;stroke-width:1.33333px;stroke-linecap:butt;stroke-linejoin:miter;stroke-opacity:1"
         d="M 60,-4 V 8 9.3339844 12 h 7 c 0,-4.986 4.014,-9 9,-9 v -7 h -4 z"
         transform="matrix(0.75000002,0,0,0.75000002,-37.99999,907.36217)" />
      <rect
         ry="0.9999752"
         y="910.36218"
         x="-19.000004"
         height="6.0000224"
         width="5.9999919"
         id="rect4834"
         style="fill:none;fill-opacity:1"
         transform="scale(-1,1)" />
      <rect
         ry="0"
         y="910.36218"
         x="-19.000004"
         height="5.9999752"
         width="2.0000038"
         id="rect4836"
         style="fill:none;fill-opacity:1"
         transform="scale(-1,1)" />
      <rect
         y="914.36218"
         x="-18"
         height="2.0000248"
         width="4.9999924"
         id="rect4838"
         style="fill:none;fill-opacity:1"
         transform="scale(-1,1)" />
      <path
         id="path1262"
         d="m 76,3 c -4.986,0 -9,4.014 -9,9 h 1 c 0,-4.4320158 3.567984,-8 8,-8 z"
         style="opacity:0.08;fill:#000000"
         transform="matrix(0.75000002,0,0,0.75000002,-37.99999,907.36217)" />
    </g>
    <g
       id="shadow-center"
       transform="translate(56.99998,-4.38e-5)">
      <rect
         style="opacity:1;fill:none;fill-opacity:1;stroke:none"
         id="rect4908"
         width="32"
         height="32"
         x="19.000004"
         y="916.36218" />
      <rect
         y="916.36218"
         x="19.000004"
         height="32"
         width="32"
         id="rect4910"
         style="opacity:1;fill:none;fill-opacity:1;stroke:none" />
    </g>
    <rect
       y="908.36218"
       x="133"
       height="8"
       width="32"
       id="mask-top"
       style="stroke-width:1.1547" />
    <rect
       y="916.36218"
       x="133"
       height="32"
       width="32"
       id="mask-center" />
    <rect
       transform="scale(1,-1)"
       y="-956.36218"
       x="133"
       height="8"
       width="32"
       id="mask-bottom" />
    <rect
       transform="rotate(90)"
       y="-133"
       x="916.36218"
       height="8"
       width="32"
       id="mask-left" />
    <rect
       transform="rotate(90)"
       y="-173"
       x="916.36218"
       height="8"
       width="32"
       id="mask-right" />
    <use
       x="0"
       y="0"
       xlink:href="#topleft"
       id="topright"
       transform="rotate(90,35,932.3622)"
       width="100%"
       height="100%" />
    <use
       x="0"
       y="0"
       xlink:href="#topleft"
       id="bottomright"
       transform="rotate(180,35,932.36219)"
       width="100%"
       height="100%" />
    <use
       x="0"
       y="0"
       xlink:href="#topleft"
       id="bottomleft"
       transform="rotate(-90,35.000012,932.36219)"
       width="100%"
       height="100%" />
    <use
       x="0"
       y="0"
       xlink:href="#top"
       id="left"
       transform="rotate(-90,34.999991,932.3622)"
       width="100%"
       height="100%" />
    <use
       x="0"
       y="0"
       xlink:href="#top"
       id="right"
       transform="matrix(0,-1,-1,0,967.36221,967.3622)"
       width="100%"
       height="100%" />
    <use
       x="0"
       y="0"
       xlink:href="#top"
       id="bottom"
       transform="matrix(1,0,0,-1,1.5258789e-5,1864.7243)"
       width="100%"
       height="100%" />
    <use
       x="0"
       y="0"
       xlink:href="#shadow-topleft"
       id="shadow-topright"
       transform="matrix(-1,0,0,1,184,8.5582258e-7)"
       width="100%"
       height="100%" />
    <use
       x="0"
       y="0"
       xlink:href="#shadow-topleft"
       id="shadow-bottomright"
       transform="matrix(0,-1,-1,0,1024.3622,1024.3622)"
       width="100%"
       height="100%" />
    <use
       x="0"
       y="0"
       xlink:href="#shadow-topleft"
       id="shadow-bottomleft"
       transform="matrix(1,0,0,-1,1.0213737e-5,1864.7244)"
       width="100%"
       height="100%" />
    <g
       id="mask-topleft">
      <rect
         id="rect1"
         width="8"
         height="8"
         x="125"
         y="908.36218"
         style="fill:none" />
      <path
         id="path1"
         d="m 133,909.36218 c -3.87802,0 -7.00002,3.122 -7.00002,7.00002 h 1.16667 3.50001 1.16667 H 133 v -1.16667 -4.66668 z" />
    </g>
    <use
       x="0"
       y="0"
       xlink:href="#mask-topleft"
       id="mask-topright"
       transform="rotate(90,149,932.36218)" />
    <use
       x="0"
       y="0"
       xlink:href="#mask-topleft"
       id="mask-bottomright"
       transform="rotate(180,149,932.36219)" />
    <use
       x="0"
       y="0"
       xlink:href="#mask-topleft"
       id="mask-bottomleft"
       transform="rotate(-90,149,932.36218)" />
    <rect
       id="hint-top-margin"
       height="4"
       style="opacity:1;fill:#008080;stroke-width:0.999996"
       width="4"
       x="30"
       y="847.36218" />
    <rect
       id="hint-bottom-margin"
       height="4"
       style="opacity:1;fill:#008080;stroke-width:0.999996"
       width="4"
       x="30"
       y="887.36218" />
    <rect
       id="hint-top-inset"
       height="9.9999999e-09"
       style="opacity:1;fill:#008080"
       width="4"
       x="30"
       y="847.36218" />
    <rect
       id="hint-bottom-inset"
       height="9.9999999e-09"
       style="opacity:1;fill:#008080"
       width="4"
       x="30"
       y="891.36218" />
    <rect
       id="hint-right-margin"
       height="4"
       style="opacity:1;fill:#008080;stroke-width:0.999996"
       width="4"
       x="48.999985"
       y="866.36224" />
    <rect
       id="hint-left-margin"
       height="4"
       style="opacity:1;fill:#008080;stroke-width:0.999996"
       width="4"
       x="8.9999847"
       y="866.36224" />
    <rect
       id="hint-left-inset"
       height="4"
       style="opacity:1;fill:#008080"
       width="9.9999999e-09"
       x="8.9999847"
       y="866.36224" />
    <rect
       id="hint-right-inset"
       height="4"
       style="opacity:1;fill:#008080"
       width="9.9999999e-09"
       x="52.999985"
       y="866.36224" />
    <rect
       id="shadow-hint-top-margin"
       height="10"
       style="fill:#8d5fd3"
       width="2"
       x="61"
       y="976.36218" />
    <rect
       id="shadow-hint-bottom-margin"
       height="10"
       style="fill:#8d5fd3"
       width="2"
       x="61"
       y="1030.3622" />
    <rect
       id="shadow-hint-top-inset"
       height="10"
       style="fill:#008080"
       width="2"
       x="65"
       y="976.36218" />
    <rect
       id="shadow-hint-bottom-inset"
       height="10"
       style="fill:#008080"
       width="2"
       x="65"
       y="1030.3622" />
    <rect
       id="shadow-hint-right-margin"
       height="2"
       style="fill:#9955ff"
       width="10"
       x="85"
       y="1006.3622" />
    <rect
       id="shadow-hint-left-margin"
       height="2"
       style="fill:#9955ff"
       width="10"
       x="31"
       y="1002.3622" />
    <rect
       id="shadow-hint-right-inset"
       height="2"
       style="fill:#008080"
       width="10"
       x="85"
       y="1002.3622" />
    <rect
       id="shadow-hint-left-inset"
       height="2"
       style="fill:#008080"
       width="10"
       x="31"
       y="1006.3622" />
    <rect
       style="color:#eff0f1;fill:currentColor;fill-opacity:1;stroke:none;stop-color:#eff0f1"
       id="thick-center"
       width="32"
       height="32"
       x="221"
       y="917.36218"
       class="ColorScheme-Background" />
    <rect
       transform="rotate(90)"
       style="opacity:0.01;fill:#008080;fill-opacity:1;stroke:none;stroke-width:1.1547"
       id="thick-hint-right-margin"
       width="4"
       height="8"
       x="937.36218"
       y="-258" />
    <rect
       transform="rotate(90)"
       y="-222"
       x="937.36218"
       height="8"
       width="4"
       id="thick-hint-left-margin"
       style="opacity:0.01;fill:#008080;fill-opacity:1;stroke:none;stroke-width:1.1547" />
    <rect
       y="911.36218"
       x="240"
       height="8"
       width="4"
       id="thick-hint-top-margin"
       style="opacity:0.01;fill:#008080;fill-opacity:1;stroke:none;stroke-width:1.1547" />
    <rect
       style="opacity:0.01;fill:#008080;fill-opacity:1;stroke:none;stroke-width:1.1547"
       id="thick-hint-bottom-margin"
       width="4"
       height="8"
       x="241"
       y="947.36218" />
  </g>
</svg>
