<?xml version="1.0" encoding="UTF-8" standalone="no"?>
<svg
   width="32"
   height="32"
   version="1.1"
   id="svg12"
   sodipodi:docname="audacious.svg"
   inkscape:version="1.3.2 (091e20ef0f, 2023-11-25)"
   xmlns:inkscape="http://www.inkscape.org/namespaces/inkscape"
   xmlns:sodipodi="http://sodipodi.sourceforge.net/DTD/sodipodi-0.dtd"
   xmlns:xlink="http://www.w3.org/1999/xlink"
   xmlns="http://www.w3.org/2000/svg"
   xmlns:svg="http://www.w3.org/2000/svg"
   xmlns:rdf="http://www.w3.org/1999/02/22-rdf-syntax-ns#"
   xmlns:cc="http://creativecommons.org/ns#"
   xmlns:dc="http://purl.org/dc/elements/1.1/">
  <metadata
     id="metadata18">
    <rdf:RDF>
      <cc:Work
         rdf:about="">
        <dc:format>image/svg+xml</dc:format>
        <dc:type
           rdf:resource="http://purl.org/dc/dcmitype/StillImage" />
      </cc:Work>
    </rdf:RDF>
  </metadata>
  <defs
     id="defs16">
    <linearGradient
       inkscape:collect="always"
       xlink:href="#linearGradient1-2"
       id="linearGradient4"
       x1="3.388535"
       y1="28.738859"
       x2="28.305733"
       y2="4.1783495"
       gradientUnits="userSpaceOnUse" />
    <linearGradient
       inkscape:collect="always"
       xlink:href="#linearGradient1-2"
       id="linearGradient2"
       x1="1.0694313"
       y1="3.5929117"
       x2="2.9203088"
       y2="1.4397044"
       gradientUnits="userSpaceOnUse"
       gradientTransform="matrix(3.779602,0,0,3.779602,8.4999232,6.472192)" />
    <linearGradient
       id="linearGradient1-2"
       inkscape:collect="always">
      <stop
         style="stop-color:#00ccff;stop-opacity:1"
         offset="0"
         id="stop1-0" />
      <stop
         style="stop-color:#ff7aff;stop-opacity:1;"
         offset="1"
         id="stop2-6" />
    </linearGradient>
    <linearGradient
       inkscape:collect="always"
       xlink:href="#linearGradient1-2"
       id="linearGradient5-8"
       x1="3.0884678"
       y1="4.5327001"
       x2="3.3808978"
       y2="1.6074843"
       gradientUnits="userSpaceOnUse"
       gradientTransform="matrix(3.779602,0,0,3.1587347,8.6856195,8.3967517)" />
    <linearGradient
       inkscape:collect="always"
       xlink:href="#linearGradient1-2"
       id="linearGradient4-2"
       x1="3.388535"
       y1="28.738859"
       x2="28.305733"
       y2="4.1783495"
       gradientUnits="userSpaceOnUse"
       gradientTransform="matrix(0.66665604,0,0,0.66665604,0.33337581,0.33364083)" />
    <linearGradient
       inkscape:collect="always"
       xlink:href="#linearGradient1-2"
       id="linearGradient3"
       gradientUnits="userSpaceOnUse"
       gradientTransform="matrix(2.5196947,0,0,2.5196947,5.9999019,4.6483648)"
       x1="1.0694313"
       y1="3.5929117"
       x2="2.9203088"
       y2="1.4397044" />
    <linearGradient
       inkscape:collect="always"
       xlink:href="#linearGradient1-2"
       id="linearGradient5"
       gradientUnits="userSpaceOnUse"
       gradientTransform="matrix(2.5196947,0,0,2.1057897,6.1236979,5.9313858)"
       x1="3.0884678"
       y1="4.5327001"
       x2="3.3808978"
       y2="1.6074843" />
  </defs>
  <sodipodi:namedview
     pagecolor="#02334b"
     bordercolor="#000000"
     borderopacity="1"
     objecttolerance="10"
     gridtolerance="10"
     guidetolerance="10"
     inkscape:pageopacity="0"
     inkscape:pageshadow="2"
     inkscape:window-width="1920"
     inkscape:window-height="994"
     id="namedview14"
     showgrid="true"
     inkscape:zoom="9.8125"
     inkscape:cx="27.10828"
     inkscape:cy="6.9808917"
     inkscape:window-x="0"
     inkscape:window-y="0"
     inkscape:window-maximized="1"
     inkscape:current-layer="svg12"
     inkscape:lockguides="false"
     inkscape:document-rotation="0"
     inkscape:showpageshadow="true"
     inkscape:pagecheckerboard="true"
     inkscape:deskcolor="#02334b">
    <inkscape:grid
       type="xygrid"
       id="grid882"
       originx="0"
       originy="4.6325683e-08"
       spacingy="1"
       spacingx="1"
       units="px"
       visible="true" />
  </sodipodi:namedview>
  <g
     id="audacious">
    <rect
       style="opacity:0.00100002"
       width="32"
       height="32"
       x="0"
       y="0"
       id="rect7" />
    <path
       d="m 7.5085836,7.5254526 c -4.716385,4.7193824 -4.677798,12.4225544 0.115759,17.0930914 4.4649734,4.350407 11.6601294,4.52822 16.3200594,0.387626 4.083077,-3.628021 5.166692,-9.408252 2.869588,-14.181245 -0.275697,-0.572846 -0.997441,-0.769523 -1.540581,-0.439586 -0.486977,0.295855 -0.651575,0.910669 -0.406768,1.425426 1.892679,3.979621 0.921547,8.803616 -2.584012,11.747197 C 18.7269,26.543697 13.451318,26.593926 9.842356,23.672835 5.2395736,19.94734 4.9758336,13.146871 9.0511616,9.068975 12.021171,6.0970706 16.481085,5.3636526 20.201013,7.1385736 c 0.51137,0.243974 1.122468,0.07613 1.416486,-0.408462 l 0.002,-0.0032 c 0.328743,-0.541829 0.135279,-1.262563 -0.435316,-1.537847 -4.556606,-2.198173 -10.032948,-1.308474 -13.6755704,2.336442 z"
       id="path1-0"
       style="fill:url(#linearGradient4);fill-opacity:1;stroke-width:0.436438" />
    <path
       id="path431"
       d="M 15.889188,10.5 A 5.3891863,5.3550546 0 0 0 10.5,15.855054 5.3891863,5.3550546 0 0 0 15.889188,21.21011 5.3891863,5.3550546 0 0 0 21.278372,15.855054 5.3891863,5.3550546 0 0 0 15.889188,10.5 Z m 0,2.142022 a 3.2335123,3.2130333 0 0 1 3.23351,3.213032 3.2335123,3.2130333 0 0 1 -3.23351,3.213033 3.2335123,3.2130333 0 0 1 -3.233514,-3.213033 3.2335123,3.2130333 0 0 1 3.233514,-3.213032 z"
       style="fill:url(#linearGradient2);stroke-width:3.7796" />
    <path
       id="path26828"
       style="opacity:0.8;fill:#ffffff;fill-opacity:1;stroke-width:0.947547"
       d="m 20.598172,14.522693 a 5.3891866,5.355055 0 0 0 -0.02947,-0.109332 c -0.03898,0.0036 -0.07781,0.0076 -0.116907,0.0122 -0.652897,0.07611 -1.318955,0.283418 -1.93337,0.661852 a 3.2335123,3.2130334 0 0 1 0.02849,0.113725 c 0.607495,-0.381842 1.267955,-0.589533 1.917652,-0.665268 0.04456,-0.0052 0.08916,-0.0092 0.133607,-0.01318 z" />
    <path
       id="path26822"
       style="opacity:0.8;fill:#ffffff;fill-opacity:1;stroke-width:0.947547"
       d="m 20.258752,18.176542 a 5.3891866,5.355055 0 0 0 0.01129,-0.02342 5.3891866,5.355055 0 0 0 0.05256,-0.115678 c -0.202828,0.07381 -0.41238,0.122295 -0.630212,0.145939 -0.626204,0.06843 -1.196822,0.07028 -1.72068,0.02538 0.772716,-0.380643 1.442317,-0.965249 1.889654,-1.803984 0.246607,-0.432074 0.533224,-0.862509 0.86648,-1.233894 a 5.3891866,5.355055 0 0 0 -0.0098,-0.0859 5.3891866,5.355055 0 0 0 -0.01129,-0.05955 c -0.368856,0.395478 -0.679874,0.861192 -0.944091,1.32419 v 0.0015 c -0.466781,0.876522 -1.181821,1.468825 -2.006068,1.836686 -0.03485,-0.004 -0.06874,-0.0089 -0.103152,-0.01318 a 3.2335123,3.2130334 0 0 1 -0.109047,0.09811 c 0.0022,2.95e-4 0.0043,6.82e-4 0.0064,9.44e-4 -0.0043,0.0017 -0.0086,0.0032 -0.01277,0.0049 a 3.2335123,3.2130334 0 0 1 -0.09726,0.08785 3.2335123,3.2130334 0 0 1 -0.168481,0.124463 c 0.170319,-0.05504 0.337613,-0.118145 0.501025,-0.189868 0.582496,0.06336 1.222711,0.07018 1.931897,-0.0074 0.190292,-0.02066 0.374561,-0.05969 0.553585,-0.117142 z" />
    <path
       id="path26816"
       d="m 10.132133,14.707192 a 5.3891866,5.355055 0 0 0 -0.02112,0.111773 c 0.412858,0.155879 0.804534,0.457967 1.135658,0.97911 0.114328,0.179851 0.233059,0.374459 0.359069,0.573995 -0.431881,0.0089 -0.86291,0.06286 -1.272704,0.143987 -0.10815,-0.240501 -0.219164,-0.454987 -0.332544,-0.646721 A 5.3891866,5.355055 0 0 0 10,15.883003 a 5.3891866,5.355055 0 0 0 0.0088,0.225986 c 0.07165,0.132817 0.142213,0.275105 0.212199,0.42952 -0.05803,0.0123 -0.115383,0.02525 -0.172412,0.03856 a 5.3891866,5.355055 0 0 0 0.01179,0.103963 5.3891866,5.355055 0 0 0 0.002,0.01025 c 0.06837,-0.016 0.137469,-0.03133 0.207287,-0.04588 0.744028,1.678544 1.803728,2.439424 3.078854,2.499026 0.395418,0.01859 0.771839,-0.04934 1.127308,-0.180593 a 3.2335123,3.2130334 0 0 1 -0.02505,-0.0063 3.2335123,3.2130334 0 0 1 -0.148834,-0.05271 c -0.302397,0.09569 -0.618829,0.142845 -0.948021,0.127375 -1.227969,-0.05735 -2.24,-0.770967 -2.972262,-2.409217 0.418256,-0.0813 0.858025,-0.133904 1.29579,-0.138618 0.292646,0.455683 0.631884,0.932066 1.07868,1.333465 0.05532,0.0497 0.11271,0.09782 0.171429,0.144963 a 3.2335123,3.2130334 0 0 1 -0.03782,-0.04149 3.2335123,3.2130334 0 0 1 -0.189113,-0.253319 3.2335123,3.2130334 0 0 1 -0.08645,-0.143499 c -0.313722,-0.324066 -0.572197,-0.685682 -0.802623,-1.040121 0.135759,0.0016 0.271001,0.0088 0.405241,0.0205 a 3.2335123,3.2130334 0 0 1 -0.0167,-0.114213 c -0.152833,-0.0128 -0.306593,-0.01938 -0.460747,-0.01956 -0.139892,-0.219409 -0.271153,-0.434685 -0.397874,-0.63403 -0.346998,-0.546121 -0.767142,-0.866784 -1.209339,-1.029872 z"
       style="opacity:0.8;fill:#ffffff;fill-opacity:1;stroke-width:0.947538" />
    <path
       id="rect29147"
       d="m 21.500001,9.232484 c 0.656834,0 1.185618,0.4383163 1.185618,1.086496 v 9.443505 c 0,0.64818 -0.528784,1.169999 -1.185618,1.169999 -0.656834,0 -1.18562,-0.521819 -1.18562,-1.169999 V 10.31898 c 0,-0.6481797 0.528786,-1.086496 1.18562,-1.086496 z"
       sodipodi:nodetypes="sssssss"
       style="fill:url(#linearGradient5-8);stroke-width:3.45525" />
  </g>
  <g
     id="22-22-audacious"
     transform="translate(32,10.000001)">
    <rect
       style="opacity:0.00100002"
       width="22"
       height="22"
       x="0"
       y="0"
       id="rect2" />
    <path
       d="m 5.3390189,5.3505288 c -3.144209,3.146202 -3.118487,8.2815712 0.07719,11.3952112 2.976605,2.900223 7.7732931,3.018768 10.8798661,0.258411 2.722007,-2.418637 3.444407,-6.272065 1.91303,-9.4540112 -0.183794,-0.381891 -0.66495,-0.513008 -1.027038,-0.293054 -0.324648,0.197234 -0.434379,0.607105 -0.271176,0.950271 1.261769,2.6530382 0.614356,5.8689822 -1.722649,7.8313412 -2.370444,1.990459 -5.8874431,2.023945 -8.2933801,0.07658 -3.068475,-2.48362 -3.2443,-7.0171982 -0.527454,-9.7357512 1.979974,-1.981239 4.9532041,-2.470174 7.4331151,-1.286914 0.340907,0.162647 0.748299,0.05073 0.944309,-0.272305 l 0.0018,-0.0024 c 0.219164,-0.361211 0.09021,-0.841692 -0.290206,-1.02521 -3.037687,-1.465427 -6.6885241,-0.872301 -9.1168981,1.557598 z"
       id="path1-0-5"
       style="fill:url(#linearGradient4-2);fill-opacity:1;stroke-width:0.290955" />
    <path
       id="path431-0"
       d="M 10.925999,7.3335268 A 3.5927334,3.5699798 0 0 0 7.3332679,10.903507 3.5927334,3.5699798 0 0 0 10.925999,14.473486 3.5927334,3.5699798 0 0 0 14.51873,10.903507 3.5927334,3.5699798 0 0 0 10.925999,7.3335268 Z m 0,1.427992 a 2.1556406,2.1419881 0 0 1 2.15564,2.1419882 2.1556406,2.1419881 0 0 1 -2.15564,2.141987 2.1556406,2.1419881 0 0 1 -2.1556411,-2.141987 2.1556406,2.1419881 0 0 1 2.1556411,-2.1419882 z"
       style="fill:url(#linearGradient3);stroke-width:2.51971" />
    <path
       id="path26828-4"
       style="opacity:0.8;fill:#ffffff;fill-opacity:1;stroke-width:0.631688"
       d="m 14.065272,10.015282 a 3.5927335,3.56998 0 0 0 -0.01967,-0.07287 c -0.026,0.0026 -0.0519,0.0054 -0.07791,0.0081 -0.435257,0.05071 -0.87929,0.188944 -1.288892,0.441228 a 2.1556406,2.1419882 0 0 1 0.01896,0.07584 c 0.404993,-0.254557 0.84529,-0.393017 1.278416,-0.443505 0.02967,-0.0038 0.05944,-0.0064 0.08905,-0.0084 z" />
    <path
       id="path26822-8"
       style="opacity:0.8;fill:#ffffff;fill-opacity:1;stroke-width:0.631688"
       d="m 13.838992,12.451142 a 3.5927335,3.56998 0 0 0 0.008,-0.0156 3.5927335,3.56998 0 0 0 0.03501,-0.07712 c -0.135213,0.04918 -0.274916,0.08151 -0.420134,0.09728 -0.417462,0.0456 -0.797869,0.0469 -1.147101,0.01689 0.515134,-0.253759 0.961528,-0.643489 1.259748,-1.202637 0.164403,-0.288045 0.355479,-0.574998 0.577647,-0.82258 a 3.5927335,3.56998 0 0 0 -0.007,-0.05725 3.5927335,3.56998 0 0 0 -0.008,-0.03969 c -0.2459,0.263646 -0.453243,0.574115 -0.629385,0.882775 v 0.0015 c -0.311183,0.584341 -0.787864,0.979203 -1.337358,1.224439 -0.0232,-0.0026 -0.04579,-0.0063 -0.06875,-0.0084 a 2.1556406,2.1419882 0 0 1 -0.07269,0.06538 c 0.002,1.98e-4 0.0029,4.54e-4 0.0044,6.32e-4 -0.0029,0.0017 -0.0063,0.0024 -0.0081,0.0035 a 2.1556406,2.1419882 0 0 1 -0.06483,0.05853 2.1556406,2.1419882 0 0 1 -0.112319,0.08298 c 0.113548,-0.03665 0.225073,-0.07878 0.334011,-0.126577 0.388326,0.04226 0.815129,0.04681 1.287912,-0.0052 0.126858,-0.01374 0.249703,-0.03977 0.36905,-0.07809 z" />
    <path
       id="path26816-7"
       d="m 7.0880239,10.138281 a 3.5927335,3.56998 0 0 0 -0.01406,0.07448 c 0.275235,0.103922 0.536348,0.305313 0.757093,0.65273 0.0762,0.119901 0.155369,0.249637 0.239375,0.382661 -0.287915,0.0063 -0.575261,0.04191 -0.848458,0.09599 -0.07214,-0.160334 -0.146102,-0.303322 -0.221691,-0.431146 a 3.5927335,3.56998 0 0 0 -3.28e-4,0.0087 3.5927335,3.56998 0 0 0 0.0063,0.150658 c 0.04774,0.08855 0.09483,0.1834 0.141462,0.286339 -0.03869,0.0081 -0.07696,0.01682 -0.114941,0.02575 a 3.5927335,3.56998 0 0 0 0.008,0.06933 3.5927335,3.56998 0 0 0 0.0018,0.0072 c 0.04556,-0.01062 0.09167,-0.02093 0.138191,-0.03062 0.496009,1.119008 1.202464,1.626253 2.052534,1.66599 0.26361,0.01237 0.514555,-0.03287 0.7515271,-0.120392 a 2.1556406,2.1419882 0 0 1 -0.01673,-0.0043 2.1556406,2.1419882 0 0 1 -0.09922,-0.03511 c -0.2015955,0.06377 -0.4125475,0.09522 -0.6320045,0.08493 -0.818632,-0.03821 -1.49331,-0.51397 -1.981476,-1.606121 0.278836,-0.05418 0.572008,-0.08925 0.863844,-0.09239 0.195098,0.303783 0.42125,0.621367 0.719111,0.888963 0.03692,0.0331 0.07512,0.06519 0.114286,0.09666 a 2.1556406,2.1419882 0 0 1 -0.02519,-0.02768 2.1556406,2.1419882 0 0 1 -0.126076,-0.16888 2.1556406,2.1419882 0 0 1 -0.05765,-0.09564 c -0.209148,-0.216043 -0.381461,-0.457114 -0.535076,-0.693403 0.09047,0.0016 0.180666,0.0063 0.270158,0.01364 a 2.1556406,2.1419882 0 0 1 -0.0111,-0.07612 c -0.101885,-0.0081 -0.204395,-0.01298 -0.30716,-0.01307 -0.09329,-0.146271 -0.180768,-0.289785 -0.265247,-0.422682 -0.231328,-0.364075 -0.511421,-0.577846 -0.806211,-0.68657 z"
       style="opacity:0.8;fill:#ffffff;fill-opacity:1;stroke-width:0.63168" />
    <path
       id="rect29147-1"
       d="m 14.666483,6.4885308 c 0.437882,0 0.790399,0.292208 0.790399,0.724323 v 6.2955672 c 0,0.432111 -0.352517,0.779985 -0.790399,0.779985 -0.437884,0 -0.790401,-0.347874 -0.790401,-0.779985 V 7.2128538 c 0,-0.432115 0.352517,-0.724323 0.790401,-0.724323 z"
       sodipodi:nodetypes="sssssss"
       style="fill:url(#linearGradient5);stroke-width:2.30344" />
  </g>
</svg>
